<svg width="612" height="612" xmlns="http://www.w3.org/2000/svg">

 <g>
  <title>background</title>
  <rect fill="none" id="canvas_background" height="402" width="582" y="-1" x="-1"/>
 </g>
 <g>
  <title>Layer 1</title>
  <g id="svg_1">
   <g id="_x36__2_">
    <g id="svg_2">
     <path stroke="#fff" fill="#ff0000" id="svg_3" d="m306,0c-168.988,0 -306,136.992 -306,306s137.012,306 306,306c169.008,0 306,-137.012 306,-306s-136.992,-306 -306,-306zm125.001,316.231c-7.478,7.479 -19.584,7.479 -27.043,0l-78.833,-78.813l0,202.457c0,10.557 -8.568,19.125 -19.125,19.125c-10.557,0 -19.125,-8.568 -19.125,-19.125l0,-202.457l-78.814,78.813c-7.478,7.479 -19.584,7.479 -27.043,0c-7.478,-7.478 -7.478,-19.583 0,-27.042l108.19,-108.19c4.571,-4.571 10.863,-6.005 16.792,-4.953c5.929,-1.052 12.221,0.382 16.811,4.953l108.19,108.19c7.459,7.478 7.459,19.584 0,27.042z"/>
    </g>
   </g>
  </g>
  <g id="svg_4"/>
  <g id="svg_5"/>
  <g id="svg_6"/>
  <g id="svg_7"/>
  <g id="svg_8"/>
  <g id="svg_9"/>
  <g id="svg_10"/>
  <g id="svg_11"/>
  <g id="svg_12"/>
  <g id="svg_13"/>
  <g id="svg_14"/>
  <g id="svg_15"/>
  <g id="svg_16"/>
  <g id="svg_17"/>
  <g id="svg_18"/>
 </g>
</svg>